<svg width="434" height="92" viewBox="0 0 434 92" fill="none" xmlns="http://www.w3.org/2000/svg" xmlns:xlink="http://www.w3.org/1999/xlink">
<path d="M396.674 0.599609C406.277 0.599634 414.194 2.89108 420.393 7.50391C426.682 12.1225 430.326 18.4405 431.317 26.4287L431.373 26.8779H412.009L411.939 26.5645C411.227 23.3689 409.593 20.9961 407.043 19.4121C404.479 17.82 400.953 17.0039 396.429 17.0039C392.323 17.0039 388.979 17.8457 386.369 19.501L386.361 19.5059C383.795 21.0558 382.518 23.3612 382.518 26.4775C382.518 28.672 383.37 30.459 385.093 31.8672C386.832 33.2893 389.479 34.339 393.075 34.9834L409.343 37.9082L409.345 37.9092C417.306 39.3817 423.328 42.2646 427.36 46.5938C431.398 50.9291 433.4 56.6719 433.4 63.7803C433.4 71.7008 430.33 78.3511 424.213 83.707L424.21 83.71C418.078 88.9955 409.286 91.6084 397.896 91.6084C386.91 91.6084 378.09 89.0748 371.477 83.9668C364.862 78.8568 361.102 71.8871 360.194 63.0898L360.148 62.6484H379.522L379.578 62.9834C380.255 67.0698 382.165 70.1049 385.302 72.1299C388.453 74.1647 392.882 75.2051 398.631 75.2051C403.475 75.205 407.259 74.2383 410.024 72.3486L410.029 72.3457C412.857 70.4666 414.253 67.9076 414.253 64.6338C414.253 61.4719 413.267 59.1629 411.347 57.6318L411.34 57.627C409.457 56.0631 406.597 54.903 402.716 54.1777V54.1768L386.086 51.252V51.2529C378.572 49.9435 372.885 47.2845 369.076 43.2393C365.261 39.1878 363.372 33.7888 363.372 27.0869C363.372 19.4889 366.362 13.1617 372.32 8.13086C378.284 3.09505 386.418 0.599609 396.674 0.599609ZM98.7167 2.18457L98.8309 2.39355L130.763 61.1855H133.305V2.18457H150.739V90.0234H126.495L126.382 89.8145L94.4491 31.0225H91.9071V90.0234H74.4725V2.18457H98.7167ZM235.528 2.18457V19.1982H189.173V36.6836H225.254V53.3311H189.173V73.0107H236.874V90.0234H170.148V2.18457H235.528ZM266.188 2.18457L266.227 2.54004L273.526 67.6465H276.045L286.849 28.8086L286.931 28.5156H310.288L310.37 28.8076L321.296 67.6465H323.693L331.114 2.53906L331.154 2.18457H349.208L349.154 2.63184L338.758 89.6709L338.716 90.0234H311.389L311.31 89.7256L299.891 46.2607H297.327L285.787 89.7266L285.708 90.0234H258.381L258.339 89.6709L247.942 2.63184L247.89 2.18457H266.188Z" fill="#FF5533" stroke="#FF5533" stroke-width="0.8"/>
<rect y="1.9021" width="88.4042" height="88.4042" fill="url(#pattern0_26_358)"/>
<defs>
<pattern id="pattern0_26_358" patternContentUnits="objectBoundingBox" width="1" height="1">
<use xlink:href="#image0_26_358" transform="scale(0.00328947)"/>
</pattern>
</defs>
</svg>
